/vscmnt/brussel_pixiu_data/_data_brussel/112/vsc11236/PredSimResults/SUBJ06mtu3D/weighted-LRposFixed/trackIG/worker_01.mot
version=1
nRows=4
nColumns=50
inDegrees=yes
endheader
                time	         pelvis_tilt	         pelvis_list	     pelvis_rotation	           pelvis_tx	           pelvis_ty	           pelvis_tz	       hip_flexion_r	     hip_adduction_r	      hip_rotation_r	        knee_angle_r	       ankle_angle_r	         mtp_angle_r	       hip_flexion_l	     hip_adduction_l	      hip_rotation_l	        knee_angle_l	       ankle_angle_l	         mtp_angle_l	    lumbar_extension	      lumbar_bending	     lumbar_rotation	 ercspn_r/activation	 intobl_r/activation	 extobl_r/activation	    abd_r/activation	    add_r/activation	hamstrings_r/activation	bifemsh_r/activation	glut_max_r/activation	iliopsoas_r/activation	rect_fem_r/activation	  vasti_r/activation	gastroc_r/activation	 soleus_r/activation	tib_ant_r/activation	 ercspn_l/activation	 intobl_l/activation	 extobl_l/activation	    abd_l/activation	    add_l/activation	hamstrings_l/activation	bifemsh_l/activation	glut_max_l/activation	iliopsoas_l/activation	rect_fem_l/activation	  vasti_l/activation	gastroc_l/activation	 soleus_l/activation	tib_ant_l/activation	
          1.86606128	         -7.66868612	          4.51264364	         -8.98936561	          2.18329170	          0.92626119	          0.01496520	        -10.96394743	         -4.81039269	          6.93913631	         -5.96758446	         10.09701497	         28.95646337	         31.27053372	          0.65031090	         -5.86974088	         -1.25759638	          6.77147897	          0.21166564	         -1.98252894	         -2.54510415	          3.39802517	          0.05793614	          0.01000004	          0.01000006	          0.05978956	          0.01000034	          0.01827279	          0.14563569	          0.04579762	          0.43647289	          0.01207347	          0.01000049	          0.35785716	          0.32740303	          0.02023216	          0.10975139	          0.17834847	          0.03156240	          0.01000043	          0.08026581	          0.11256770	          0.24450463	          0.01000062	          0.11582095	          0.01000057	          0.01000007	          0.02159935	          0.01000004	          0.28131148	
          1.87850169	         -7.76615986	          4.45602706	         -9.05153449	          2.20052112	          0.92413968	          0.01475401	        -11.21160349	         -4.79540949	          6.58182407	         -7.28464833	          9.45757210	         30.93195830	         31.37497495	          0.74775169	         -5.58031065	         -2.92662956	          6.35172155	          0.21579930	         -1.71197719	         -2.89244701	          3.56422102	          0.09073441	          0.01000005	          0.01000016	          0.04952172	          0.02972104	          0.01849533	          0.12062529	          0.03793267	          0.43982775	          0.01000140	          0.01000097	          0.32905667	          0.30900756	          0.01675763	          0.09090352	          0.15343529	          0.02614210	          0.01000004	          0.11496944	          0.09868192	          0.20251547	          0.05028321	          0.09593068	          0.01000063	          0.01000011	          0.02859710	          0.01781823	          0.28989663	
          1.89094210	         -7.84319077	          4.39462967	         -9.05764734	          2.21815719	          0.92224546	          0.01445605	        -11.35663983	         -4.76373990	          6.19231595	         -8.86211557	          8.66562374	         32.94982881	         31.30752862	          0.84521295	         -5.28384646	         -4.54758007	          5.88530913	          0.19912773	         -1.42117628	         -3.24773877	          3.70570835	          0.10065159	          0.01000005	          0.01000018	          0.04101721	          0.02461721	          0.01724255	          0.09991001	          0.03141839	          0.42783512	          0.01001902	          0.02124787	          0.28465790	          0.28598258	          0.01387980	          0.07563784	          0.12708551	          0.02165265	          0.05324760	          0.09522562	          0.08971894	          0.16773746	          0.09634526	          0.07945623	          0.01000021	          0.01000005	          0.02368605	          0.01475826	          0.34554830	
          1.90338251	         -7.90222773	          4.32501571	         -9.00663309	          2.23594573	          0.92080567	          0.01404798	        -11.31267728	         -4.70529579	          5.77625347	        -10.80564874	          7.66960270	         34.98949071	         31.09359703	          0.96326342	         -5.03093891	         -5.90864667	          5.24687042	          0.17703436	         -1.13745321	         -3.60315336	          3.81696470	          0.13548640	          0.01000004	          0.01000011	          0.03397321	          0.03590647	          0.02087346	          0.08275222	          0.02602282	          0.41639283	          0.01207935	          0.01759900	          0.23577276	          0.24473153	          0.01149618	          0.08671892	          0.10526076	          0.01793418	          0.11332287	          0.12420627	          0.07734041	          0.13893155	          0.14403060	          0.06581098	          0.01000017	          0.01000004	          0.01961840	          0.01222380	          0.38077960	
